HIERARCHY
ROOT Hips
{
	OFFSET 0.000000 0.000000 0.000000
	CHANNELS 6 Xposition Yposition Zposition Yrotation Xrotation Zrotation
	JOINT Chest
	{
		OFFSET 0.000000 10.149404 -1.127712
		CHANNELS 6 Xposition Yposition Zposition Yrotation Xrotation Zrotation
		JOINT Chest2
		{
			OFFSET 0.000000 11.268527 0.000000
			CHANNELS 6 Xposition Yposition Zposition Yrotation Xrotation Zrotation
			JOINT Chest3
			{
				OFFSET 0.000000 10.288218 -0.001079
				CHANNELS 6 Xposition Yposition Zposition Yrotation Xrotation Zrotation
				JOINT Chest4
				{
					OFFSET 0.000000 10.276731 -0.001080
					CHANNELS 6 Xposition Yposition Zposition Yrotation Xrotation Zrotation
					JOINT Neck
					{
						OFFSET 0.000000 14.388412 0.000000
						CHANNELS 6 Xposition Yposition Zposition Yrotation Xrotation Zrotation
						JOINT Head
						{
							OFFSET 0.000000 9.567978 0.002321
							CHANNELS 6 Xposition Yposition Zposition Yrotation Xrotation Zrotation
							End Site
							{
								OFFSET 0.000000 17.765411 0.000312
							}
						}
					}
					JOINT RightCollar
					{
						OFFSET -3.132497 8.066086 0.000000
						CHANNELS 6 Xposition Yposition Zposition Yrotation Xrotation Zrotation
						JOINT RightShoulder
						{
							OFFSET -14.645328 0.000000 0.000000
							CHANNELS 6 Xposition Yposition Zposition Yrotation Xrotation Zrotation
							JOINT RightElbow
							{
								OFFSET 0.000000 -31.323030 0.000000
								CHANNELS 6 Xposition Yposition Zposition Yrotation Xrotation Zrotation
								JOINT RightWrist
								{
									OFFSET 0.000000 -25.610935 0.000000
									CHANNELS 6 Xposition Yposition Zposition Yrotation Xrotation Zrotation
									End Site
									{
										OFFSET 0.000000 -19.138220 0.000000
									}
								}
							}
						}
					}
					JOINT LeftCollar
					{
						OFFSET 3.132497 8.066086 0.000000
						CHANNELS 6 Xposition Yposition Zposition Yrotation Xrotation Zrotation
						JOINT LeftShoulder
						{
							OFFSET 14.645328 0.000000 0.000000
							CHANNELS 6 Xposition Yposition Zposition Yrotation Xrotation Zrotation
							JOINT LeftElbow
							{
								OFFSET 0.000000 -31.323030 0.000000
								CHANNELS 6 Xposition Yposition Zposition Yrotation Xrotation Zrotation
								JOINT LeftWrist
								{
									OFFSET 0.000000 -25.610935 0.000000
									CHANNELS 6 Xposition Yposition Zposition Yrotation Xrotation Zrotation
									End Site
									{
										OFFSET 0.000000 -19.138220 0.000000
									}
								}
							}
						}
					}
				}
			}
		}
	}
	JOINT RightHip
	{
		OFFSET -8.349073 0.003782 -0.000420
		CHANNELS 6 Xposition Yposition Zposition Yrotation Xrotation Zrotation
		JOINT RightKnee
		{
			OFFSET 0.000000 -43.250797 -0.000255
			CHANNELS 6 Xposition Yposition Zposition Yrotation Xrotation Zrotation
			JOINT RightAnkle
			{
				OFFSET 0.000000 -42.243721 -0.000429
				CHANNELS 6 Xposition Yposition Zposition Yrotation Xrotation Zrotation
				JOINT RightToe
				{
					OFFSET 0.000000 -7.531273 17.111912
					CHANNELS 6 Xposition Yposition Zposition Yrotation Xrotation Zrotation
					End Site
					{
						OFFSET 0.000000 -1.639313 7.141665
					}
				}
			}
		}
	}
	JOINT LeftHip
	{
		OFFSET 8.349073 0.001501 -0.000167
		CHANNELS 6 Xposition Yposition Zposition Yrotation Xrotation Zrotation
		JOINT LeftKnee
		{
			OFFSET 0.000000 -43.250797 -0.000255
			CHANNELS 6 Xposition Yposition Zposition Yrotation Xrotation Zrotation
			JOINT LeftAnkle
			{
				OFFSET 0.000000 -42.243713 -0.000429
				CHANNELS 6 Xposition Yposition Zposition Yrotation Xrotation Zrotation
				JOINT LeftToe
				{
					OFFSET 0.000000 -7.531273 17.111912
					CHANNELS 6 Xposition Yposition Zposition Yrotation Xrotation Zrotation
					End Site
					{
						OFFSET 0.000000 -1.639313 7.141665
					}
				}
			}
		}
	}
}
MOTION
Frames: 4
Frame Time: 0.008333
3.668348 1.264949 11.135262 5.152058 7.806770 -59.946494 -0.000001 10.149404 -1.127712 4.778319 13.974484 -3.561372 0.000000 11.268528 0.000001 2.204597 10.847381 -5.577071 0.000001 10.288222 -0.001080 -3.463189 -2.925511 -2.192527 -0.000001 10.276726 -0.001081 -0.571793 6.265846 -0.087063 0.000001 14.388410 0.000001 -14.691689 17.368507 11.395286 -0.000004 9.567982 0.002325 22.761675 -38.239132 33.507918 -3.132494 8.066090 -0.000001 -0.357920 -6.187155 -1.341251 -14.645328 0.000004 0.000002 -51.417510 -11.947641 59.169990 -0.000006 -31.323032 -0.000000 10.737436 9.291198 116.375167 -0.000001 -25.610937 0.000004 -6.545684 3.348843 9.801819 3.132498 8.066087 -0.000004 -12.888065 -9.335600 -15.319023 14.645330 -0.000002 -0.000007 -21.040118 -46.794411 32.612036 0.000004 -31.323038 0.000002 -60.711864 16.929203 -96.469899 -0.000004 -25.610933 -0.000001 7.568953 -3.580667 13.028208 -8.349072 0.003781 -0.000420 0.122513 -37.917163 36.510824 -0.000003 -43.250801 -0.000261 -4.949934 55.431886 -6.503575 -0.000003 -42.243710 -0.000437 -29.486794 -22.309146 29.287137 -0.000003 -7.531260 17.111912 0.695722 -4.566899 -0.191989 8.349073 0.001501 -0.000169 -53.817758 -24.301559 3.463996 0.000000 -43.250805 -0.000262 5.952925 38.673457 5.018465 -0.000003 -42.243690 -0.000438 34.056710 9.648945 3.543859 -0.000003 -7.531271 17.111912 1.803275 6.467503 0.268011 
3.787305 1.227513 10.995513 5.502721 8.165778 -59.697008 -0.000001 10.149402 -1.127712 5.162585 14.476106 -3.824699 0.000002 11.268524 0.000001 2.200469 11.438695 -6.037045 0.000001 10.288219 -0.001079 -3.909739 -2.792379 -2.331245 -0.000002 10.276733 -0.001081 -0.571793 6.265846 -0.087062 -0.000003 14.388411 -0.000004 -14.042353 17.548255 11.603890 -0.000007 9.567976 0.002325 21.643476 -39.301120 33.768670 -3.132499 8.066092 -0.000003 0.016577 -6.206423 -1.621193 -14.645329 -0.000002 -0.000000 -52.422860 -12.051392 59.724827 0.000002 -31.323032 0.000000 10.292989 9.746203 116.761374 -0.000001 -25.610935 -0.000005 -7.094442 3.619739 10.105320 3.132496 8.066094 -0.000001 -13.758987 -9.896366 -16.685985 14.645329 0.000000 -0.000006 -23.373329 -43.968311 29.998143 0.000002 -31.323032 0.000005 -55.461956 30.741657 -82.883553 -0.000001 -25.610933 -0.000001 8.579254 -3.532275 11.435094 -8.349073 0.003781 -0.000421 0.221589 -38.819688 36.077131 0.000004 -43.250793 -0.000259 -5.235095 56.551207 -6.812989 -0.000006 -42.243721 -0.000430 -29.763946 -22.153222 29.452138 -0.000000 -7.531266 17.111914 0.660457 -4.338424 -0.181034 8.349072 0.001501 -0.000167 -54.627023 -24.860490 4.086741 -0.000000 -43.250797 -0.000262 6.358956 40.267435 5.393615 0.000004 -42.243702 -0.000420 36.432181 4.782895 3.470440 -0.000003 -7.531284 17.111906 1.698565 6.096947 0.247049 
3.899274 1.188891 10.853306 6.011109 8.487429 -59.335035 0.000000 10.149405 -1.127711 5.463102 14.934494 -3.975271 0.000001 11.268527 0.000001 2.094796 12.100565 -6.329074 0.000002 10.288218 -0.001080 -4.336461 -2.549401 -2.391281 0.000001 10.276730 -0.001077 -0.571790 6.265846 -0.087064 -0.000001 14.388412 0.000005 -12.954984 17.866264 11.757771 -0.000000 9.567980 0.002308 20.101124 -40.377807 33.854164 -3.132500 8.066082 0.000000 0.440571 -6.226004 -1.837741 -14.645329 -0.000000 -0.000001 -53.457445 -12.056903 60.218691 -0.000008 -31.323038 0.000000 9.770606 10.289450 117.132075 -0.000000 -25.610937 -0.000001 -7.506580 3.886104 10.541244 3.132497 8.066081 0.000003 -13.800684 -10.300891 -18.437245 14.645328 0.000005 -0.000001 -24.036751 -37.211024 24.512137 0.000002 -31.323032 -0.000004 -36.240946 41.724844 -55.534178 -0.000002 -25.610935 0.000000 4.040880 -1.928129 9.841055 -8.349074 0.003782 -0.000419 0.337012 -39.511565 35.575693 -0.000002 -43.250797 -0.000258 -5.542520 57.677437 -7.144727 -0.000000 -42.243721 -0.000422 -30.132459 -22.031386 29.478796 0.000001 -7.531259 17.111912 0.617488 -4.059585 -0.167863 8.349073 0.001501 -0.000166 -55.825407 -25.638500 5.728088 0.000006 -43.250793 -0.000258 6.878279 42.178173 5.876375 0.000009 -42.243706 -0.000436 37.016600 0.572215 2.799525 -0.000004 -7.531283 17.111904 1.880047 6.738685 0.283819 
4.012048 1.149253 10.715717 6.441427 8.843025 -58.835536 0.000001 10.149404 -1.127712 5.854530 15.318224 -4.025930 0.000001 11.268531 0.000000 1.999245 12.825054 -6.420626 -0.000001 10.288228 -0.001079 -4.808733 -2.168936 -2.341751 0.000001 10.276730 -0.001080 -0.571793 6.265850 -0.087062 -0.000003 14.388427 0.000000 -13.110558 17.954699 11.636423 0.000005 9.567990 0.002315 19.775349 -41.142857 33.593196 -3.132499 8.066097 0.000001 0.259709 -6.211816 -2.178389 -14.645329 0.000005 -0.000002 -54.089719 -12.343220 60.891744 -0.000002 -31.323034 0.000001 9.309021 10.789014 117.537420 -0.000001 -25.610935 -0.000001 -7.550486 4.018389 10.954365 3.132495 8.066093 0.000006 -13.471851 -10.312514 -19.033056 14.645326 0.000008 0.000001 -20.496138 -17.825660 14.505319 0.000001 -31.323027 0.000003 -4.568410 27.545721 -12.251217 -0.000001 -25.610935 0.000001 -5.404078 0.323398 2.273491 -8.349074 0.003782 -0.000420 0.641125 -40.187494 34.849920 0.000000 -43.250801 -0.000258 -5.832246 58.669959 -7.455754 0.000002 -42.243717 -0.000431 -30.675606 -21.872281 29.326974 -0.000001 -7.531268 17.111919 0.608716 -4.002585 -0.165198 8.349074 0.001502 -0.000167 -57.271553 -26.910775 7.831465 -0.000000 -43.250801 -0.000258 7.495402 44.278556 6.453865 -0.000002 -42.243702 -0.000437 35.946995 -2.249459 1.255175 -0.000004 -7.531276 17.111912 2.258089 8.067395 0.366655 
